<svg version="1" xmlns="http://www.w3.org/2000/svg" width="768" height="768" viewBox="0 0 576.000000 576.000000"><path d="M427.7 63.6c-.3.3-3.1.6-6.4.8-10.1.4-13.2 4.4-13.4 17.1v43c0 7.4 0 7.5.1 15.9.1 3.7-.1 7-.3 7.3-.2.2-2.4-1.3-4.8-3.3-2.4-2-6.4-5.2-8.9-7.2-2.4-2.1-6.3-5.3-8.6-7.2-5.5-4.6-10.5-8.7-17.9-14.6-3.3-2.7-6.2-5.1-6.5-5.4-.3-.3-3.9-3.3-8-6.5-4.1-3.3-8.2-6.7-9-7.5-.8-.8-5.5-4.7-10.3-8.5-4.8-3.9-10.2-8.3-12-9.8-10.6-9.3-20.1-13.1-33.2-13.1-10.6 0-12.7.4-20.3 3.9-4.9 2.3-15.6 9.7-18.7 13-.5.6-3.2 2.9-6 5-6.6 5.3-9.5 7.6-11.7 9.7-1 1-2.1 1.8-2.4 1.8-.4 0-1.4.8-2.3 1.8-.9.9-3.8 3.5-6.6 5.7-2.7 2.1-5.9 4.7-7 5.7-1.1.9-4 3.4-6.5 5.4-2.5 2-6.5 5.3-9 7.4-2.5 2.1-11.2 9.3-19.5 16.1-8.2 6.7-15.1 12.6-15.3 13.1-.2.4-1 .8-1.8.8s-1.4.4-1.4.8-2.2 2.4-4.8 4.5c-2.7 2-6 4.7-7.3 5.9-1.4 1.3-4.7 4.1-7.5 6.2-5.5 4.5-6.1 5-12.4 10.3-2.5 2.1-6.7 5.6-9.5 7.8-2.7 2.1-5.8 4.6-6.7 5.4-.9.9-2.3 2.1-3 2.6-2.9 2.3-17.4 14.1-18.4 15-.6.5-5.5 4.6-10.9 9s-11.5 9.4-13.4 11.1c-2 1.7-16.6 13.8-32.6 26.8-16 13.1-30 25.2-31.3 26.9-4.3 6-2.7 11 7.3 22.1.6.6 2.2 2.7 3.7 4.8 1.5 2 3.3 4.2 4 5 .7.7 3.7 4.2 6.6 7.8 6.5 7.9 10.2 10.1 15.1 9.4 3.2-.5 9.8-4.8 15.6-10.1 1.1-1 5.6-4.7 10-8.2 4.4-3.5 8.5-6.9 9-7.5.6-.6 6.9-5.8 14-11.5 7.2-5.8 13.7-11.2 14.6-12 .9-.9 3.4-3 5.4-4.6 2.1-1.7 4.3-3.5 4.9-4 .6-.6 3.4-2.8 6.1-5 2.8-2.2 5.5-4.4 6.1-5 .6-.5 2.8-2.4 4.9-4 2.1-1.7 4.3-3.5 4.9-4 .6-.6 3.3-2.8 6.1-5 2.7-2.2 6.1-5 7.5-6.2 2.3-1.9 10.9-9 21.5-17.8 2.2-1.8 5.8-4.8 8.1-6.6 2.2-1.9 6-5 8.4-6.9 2.4-1.9 5.2-4.3 6.2-5.3 1-.9 2-1.7 2.3-1.7.3 0 1.3-.8 2.3-1.8 1-.9 3.8-3.3 6.2-5.2 2.4-1.9 4.8-4 5.4-4.5.6-.6 5.6-4.7 11.1-9.2 5.5-4.4 11-8.9 12.2-9.9 1.1-1.1 4.1-3.5 6.4-5.4 2.4-1.9 9.7-8 16.4-13.5 6.6-5.5 13.8-11.4 15.9-13 2.2-1.7 4.6-3.7 5.5-4.6 5.3-5.2 11.4-7.4 15.9-5.7 1.9.7 13.7 9.7 18.8 14.3.6.5 3 2.6 5.4 4.5 2.4 1.9 4.9 4.1 5.6 4.7.7.7 1.5 1.3 1.8 1.3.3 0 1.4.8 2.4 1.7 2.6 2.6 6.7 6 15.2 12.8 4.1 3.3 7.7 6.3 8 6.7.3.3 3.2 2.8 6.5 5.5 3.4 2.6 6.7 5.4 7.5 6.1 1.8 1.5 4.7 3.9 10.2 8.4 5.8 4.6 20.2 16.5 33.8 27.8 6.3 5.2 12.4 10.2 13.5 11.1 4 3.4 21.3 17.5 25.5 20.9 2.4 1.9 4.8 4 5.4 4.5.6.6 4.7 3.9 9.1 7.5 4.4 3.5 8.2 6.7 8.5 7 .5.5 10.2 8.5 12.6 10.4.7.5 2.6 2.1 4.4 3.6 1.8 1.5 3.7 3.1 4.4 3.6 2.2 1.7 12.1 9.9 12.6 10.4 2.1 2.3 28.6 23.4 30.5 24.4 1.4.7 3.5 1.2 4.8 1.1 1.2-.1 2.9-.3 3.9-.4 1.5-.1 6.5-4.5 9.8-8.7 5.4-6.9 18.7-23.1 19.6-23.9 2.9-2.8 4.5-6.9 4.1-10.6-.6-5-2-6.8-10.9-14.1-2.3-1.8-5.6-4.5-7.3-5.9-5.7-4.9-8-6.8-20.5-17-6.9-5.6-12.7-10.4-13-10.8-.3-.3-2.3-1.9-4.5-3.6-2.1-1.6-4.7-3.6-5.6-4.5-.9-.8-3.5-3.1-5.9-5-2.4-1.9-5.4-4.5-6.7-5.8-1.3-1.2-2.7-2.2-3.1-2.2-.4 0-2.9-2.1-5.5-4.5l-4.8-4.5.1-8.2c.1-4.6 0-10.1-.1-12.3 0-2.2-.1-4.5-.1-5 .1-.6.1-5.1.1-10v-10.8c.2-3.8.2-5.5.2-13.2.1-4.4 0-8.9-.1-10-.1-1.1-.1-2.5-.1-3V125v-21.3c.2-3.9.2-5.5.2-12.7 0-4.1.1-8.6.1-10 .5-9.2-3.5-15.5-10.5-16.5-4.4-.6-4.7-.6-13.7-.4-3 .1-5.9.1-6.5.1-6.4-.5-15.5-.6-15.5-.2 0 .6-10.8.3-12.5-.4-.7-.2-1.5-.2-1.8 0z"/><path d="M284.7 178.1c-2.3.6-6.7 3.8-14.7 10.6-.8.7-2.7 2.3-4.2 3.5-3.1 2.7-3.1 2.7-17.3 14.2-6.1 4.9-11.8 9.7-12.7 10.5-.9.9-2.3 2.1-3 2.6-2.6 2-23.3 19-25 20.5-.9.8-2.3 1.9-3 2.5-.7.5-2.9 2.3-4.9 4-2 1.6-5.4 4.4-7.5 6.2-4.7 3.8-13.8 11.4-29.4 24.3-6.3 5.2-13.7 11.3-16.5 13.4-2.7 2.2-5.2 4.2-5.5 4.6-.3.3-5.4 4.6-11.5 9.5-6 4.9-11.2 9.2-11.5 9.5-.3.3-4.1 3.4-8.5 7C96.2 331.7 96 331.9 96 337.5c0 5.4 0 8-.3 16.8-.1 3.1 0 5.7.3 5.7s.5 2.7.5 6-.2 6-.5 6-.3 5.6 0 12.5.3 12.5 0 12.5-.5 2.5-.5 5.5.2 5.5.5 5.5.4 3 .2 6.7c-.2 3.8-.2 8.1-.2 9.8.1 1.6.2 3.7.1 4.5-.1 2.8-.1 10.4.2 21.3.1 5.9 0 10.7-.3 10.7s-.5 2.5-.5 5.5.2 5.5.5 5.5c.4 0 .4 7.1 0 15-.3 5.1.8 14.7 1.9 16.8 1.8 3.3 7.8 7.4 11.4 7.8 2.9.3 14.7.4 30 .3 3.1 0 6.2.3 6.7.6.6.3 1 .3 1-.2 0-.4 2.6-.7 5.7-.5 3.2.1 6.3.3 6.8.3.6-.1 3.7-.2 7.1-.3 3.3-.1 6.5.2 7.1.5.7.4 1.4.4 1.6 0 .3-.5 6.5-.7 13.9-.6 16.8.3 39-.1 39.6-.7.1-.1.5-.3 1-.4 4.2-.9 10.2-9 10.2-13.8-.1-1.3-.1-5.2-.1-8.8 0-3.6-.1-8.9-.2-11.8-.1-2.8 0-5.2.3-5.2.4 0 .3-8.2-.1-16.5-.1-.6 0-3.5 0-6.5.1-3 .1-9.8.1-15-.1-5.2-.1-10 0-10.5.3-2.6 0-20.8-.4-21.2-.9-1 2.4-9.7 4.6-12 4.1-4.4 8-5.3 22.2-5.3 7.2 0 13.8-.1 14.6-.1 6.8-.3 38.2.1 41.5.6 1.1.1 2.6.3 3.4.4.7 0 3 1.9 5.1 4 3 3.1 4 5 4.5 8.8.7 5.3.8 7.3.5 8.8-.1.5-.1 6.6 0 13.5s.1 13.2.1 14v40c0 .8-.1 6.6-.1 12.9-.1 9.9.2 11.9 2.2 15.9 4.1 8.2 5.7 8.7 31.8 8.8 12.4 0 23.1.4 23.8.8.7.4 1.2.4 1.2-.1 0-.4 4.4-.7 9.7-.5 5.4.1 10.5.2 11.3.2 4.8 0 16.1 0 19.4.1 2.1 0 4-.2 4.3-.4.2-.3 1.8-.1 3.4.3 1.6.5 2.9.6 2.9.2 0-.4 2.3-.7 5-.7 2.8 0 5 .2 5 .5s3.1.3 7-.1c7.7-.7 13.2-3.9 15.2-8.7 1.5-3.7 2.6-11.2 1.8-11.7-.4-.2-.4-2.5 0-5s.4-4.8 0-5c-.4-.2-.4-2.5 0-5s.4-4.5.1-4.5c-.3 0-.6-2.7-.6-6s.2-6 .5-6 .4-4.6.3-10.2c-.2-11.1-.3-18-.4-24.2 0-2.1 0-4.2-.1-4.5 0-.3 0-.8.1-1.1.5-1.3.5-12 .1-12-.3 0-.5-2.7-.5-6s.2-6 .5-6 .4-4.6.3-10.2c-.2-11.1-.3-18-.4-24.2 0-2.1 0-4.2-.1-4.5 0-.3 0-.8.1-1.1.5-1.3.5-12 .1-12-.3 0-.4-2-.2-4.5.4-4.7-1.3-10.5-3-10.5-.5 0-1.5-.6-2.2-1.3-.7-.6-3.2-2.8-5.6-4.7-2.4-1.9-4.8-4-5.4-4.5-.9-.9-6.6-5.5-19-15.5-1-.8-2.3-2-3-2.5-.6-.6-4.9-4.2-9.6-8-4.7-3.9-9.4-7.7-10.5-8.7-1.1-.9-5.4-4.4-9.5-7.8-4.1-3.3-8.4-6.9-9.5-7.8-1.1-1-6.9-5.8-13-10.7-6-4.9-11.2-9.2-11.5-9.5-.3-.3-3-2.5-6-5-3-2.4-6.3-5.1-7.2-6-.9-.8-2.3-2-3-2.5-4.5-3.5-17.4-14-17.8-14.5-.3-.3-4.1-3.5-8.5-7s-8.2-6.7-8.5-7c-.3-.3-3.9-3.2-8-6.5s-8.5-6.9-9.7-8c-1.2-1.1-2.8-2.5-3.5-3-.7-.6-3.7-3-6.6-5.4-5.6-4.7-10.1-6.2-14.5-5z"/></svg>