<svg version="1" xmlns="http://www.w3.org/2000/svg" width="2780" height="2780" viewBox="0 0 2085.000000 2085.000000"><path d="M.9 1.2C.8 1.9.7 133.1.6 292.7L.5 583h209V208.5h185.8c124.1 0 186.1-.3 186.5-1 .4-.5.7-47.5.7-104.3V0H291.8C59.9 0 1 .3.9 1.2zM785 104.3v104.2h1090.5l.3 545.3c.2 435.1.5 545.2 1.5 545.3 1.7 0 197.3.1 202.7 0l4.5-.1V.5L1434.8.2 785 0v104.3z"/><path d="M1189.7 677.6c-.2.2-9.8.6-43.7 1.9-46 1.8-59.3 2.5-59.8 3-.4.4-.6 16.6-.3 23.1.1 1.9 1.2 2.3 8.9 3.8 30.4 6 41 13.5 47.7 34 1.4 4.4 2.8 10.2 3.1 13 .3 2.8.7 5.7 1 6.4.2.7.7 7 1.1 14 1 16.9 1 497.9 0 510.6-2 25.6-5.7 37.4-14.9 46.5-6 6-13.4 10-26.3 14.1-5.5 1.7-10.7 3.5-11.5 3.9-1.2.6-1.5 3.2-1.5 12.5v11.6h194v-11.6c0-13.4 1-12-11.5-15.9-12-3.8-20.2-8-26-13.2-11-9.8-14.5-20.9-16.5-51.3-.8-11.7-.8-146 0-146.8.7-.7 32.5-.3 38.4.4 9.1 1.2 16.5 5.1 24.4 12.6 5 4.8 18.4 21.4 29.7 36.9 4.1 5.6 8 10.7 8.6 11.3.6.6 2.3 2.9 3.7 5.1 1.5 2.2 11.2 15.5 21.7 29.5 24.9 33.2 46.7 63.7 52.9 74 6.3 10.2 8.3 16.3 8.4 24.9 0 8.5-2.1 12.4-8.3 15.6-4.1 2.1-6.3 2.7-12.9 4-1.3.2-2.6.6-2.8.9-.4.3-.6 13.2-.4 20.9l.1 2.7 93.7-.2 93.8-.3v-23.6l-2.5-.5c-5.8-1.3-18-5.9-24.5-9.3-13.5-7-27.8-19.1-42.5-36.1-3.6-4.1-6.7-7.7-7.1-8-.6-.6-21.9-28.2-28.9-37.5-2.5-3.3-4.7-6.2-5.1-6.5-.3-.3-7-9.1-14.9-19.5-7.9-10.5-14.9-19.5-15.5-20.1-.5-.6-1.7-2.2-2.5-3.4-.8-1.2-2-2.8-2.5-3.4-.6-.6-3.9-4.9-7.5-9.6-14.9-19.7-18.6-24.5-19.7-26-6.1-7.5-54.3-70.7-54.3-71.1 0-.6 3.8-4.4 17.5-17.4 11.2-10.6 33.2-31.4 36.4-34.4 2-1.9 10.6-10 19.1-18.1 8.5-8.1 17.5-16.7 20-19 32.3-30.4 29.7-28.1 42.5-38.4 23.8-19.2 49.1-33.4 68-38.3 3.9-1 7.3-2.2 7.6-2.7.4-.5.8-6 .8-12.2l.2-11.4h-211.2l.3 12.2.3 12.1 7 1.4c21.5 4.3 31.7 15.8 31 35-.6 12.8-5.6 25.2-16.6 40.8-6.5 9-34.3 37.8-49.3 51.1-4.4 3.8-8.4 7.4-9 7.9-.6.6-4.5 3.8-8.6 7.1-19.4 15.6-32.4 22.9-46.5 26.1-1.1.2-9.1.7-17.7 1l-15.8.6v-16.9c-.1-9.3-.1-105.4-.1-213.6l-.1-196.7-21.4.2c-11.8 0-21.5.2-21.7.3zM1 1433.8v649.8l649.7-.1h649.6V1980c-.1-56.9-.2-103.8-.2-104.3-.1-.4-245.3-.7-545.1-.7-435.3 0-545-.3-545.1-1.3-.1-.6-.2-246-.3-545.2l-.1-544-104.2-.3L1 784v649.8z"/><path d="M823.8 901.5c-.1.1-3 .5-6.3.9-21.9 2.1-47 12.1-72.3 29-13.8 9.2-36 28.4-54.8 47.4-6.9 7.1-7.3 7.3-10.5 6.4-2.9-.7-3.4-1.2-3.3-3.8.2-4.3 1.3-21.9 1.9-29.4.6-8.1 1.3-17.5 2-30.5.4-5.5.8-11.5 1-13.3.3-2.4 0-3.2-1.3-3.3-4.5-.2-44.6.3-51.2.6-7 .3-15.1.6-53 2.1-8.5.4-18.4.8-22 .9-3.6.2-8.8.3-11.5.4l-5 .1v13c0 10.8.2 13.1 1.5 13.4.8.2 5 1.2 9.3 2.1 10.2 2.2 20.9 5.8 26.3 9 12.4 7.3 19.4 21.1 21.1 42.1 1.1 12 1 295.1 0 303.9-1.2 10.2-1.6 12.2-3.7 20.3-5.3 19.6-14.1 27.9-37.5 35.7-4.4 1.5-8.5 3.1-9.1 3.6-.7.6-1.1 5.2-1.1 12.4v11.5H736v-23.8l-8.7-2.7c-17.9-5.5-27.9-11.4-34.1-19.8-4.2-5.6-7.7-13.9-8.6-20.3-.4-2.2-.8-5.1-1.1-6.4-1.6-8.1-2-36.9-2-133 0-59.1.3-110 .8-113 2.2-16.2 8.4-29.9 20.7-45.4 6.2-7.9 19.8-20.4 36.6-33.5 6.4-5.1 26.1-14.2 33.4-15.6 1.4-.2 4.7-.9 7.5-1.4 6.5-1.2 27.3-.7 35.5.9 3.6.6 11.1 3.4 16.8 6.1 8.7 4.2 11.5 6.2 18.1 12.8 8.6 8.6 13.7 16.7 17.7 28.1 2.7 7.9 5.9 20.9 6.9 28 .3 2.5.8 5.2 1 6 .7 3 1.9 17.2 3.1 38 1 16 1.1 193.4.1 206.1-1.8 24.7-7.1 40-17.2 49.2-3.9 3.6-16.9 9.9-26.5 12.8-4.1 1.3-7.7 2.5-8 2.7-.2.2-.5 5.7-.5 12.3v11.9h192.6l-.3-12.1-.3-12.2-7.5-2.2c-28.7-8.4-39.5-18.2-43.9-39.6-2.6-12.7-2.5-8-3.5-200.9-.2-40.4-.6-75.3-.9-77.5-.3-2.2-.9-6.9-1.2-10.5-.3-3.6-.8-7.2-1-8-.3-.8-.7-3.1-.9-5-1.7-13.3-9-36.9-14.8-47.8-5.1-9.5-12.4-19.4-19.4-26.2-8.7-8.6-8-8-14.9-12.7-14.1-9.5-30.2-15.4-50.5-18.3-6.9-1.1-36.4-2.2-37.2-1.5zM1877.7 1501.8c-1.6.3-1.7 13-1.7 186.8V1875h-373v6.2c-.1 8.5-.1 156.1-.1 181.8l.1 20.5 289.8-.1c159.3 0 290.2-.1 290.8-.2.8-.2 1.1-81.3 1-290.7l-.1-290.5-3.5-.1c-11.4-.3-201.9-.3-203.3-.1z"/></svg>